<svg width="179" height="48" viewBox="0 0 179 48" fill="none" xmlns="http://www.w3.org/2000/svg">
<path d="M24.9265 0.75H154.702C167.613 0.75 178.073 11.1629 178.073 24C178.073 36.8371 167.613 47.25 154.702 47.25H24.9265C12.0153 47.25 1.55518 36.8371 1.55518 24C1.55518 11.1629 12.0153 0.75 24.9265 0.75Z" fill="url(#paint0_linear_619_441)" stroke="#EFEFEF" stroke-width="1.5"/>
<g filter="url(#filter0_d_619_441)">
<path d="M155.768 31.6453C156.025 32.3898 155.964 33.1826 155.62 33.872C155.373 34.3753 155.02 34.7648 154.588 35.1129C154.066 35.5266 153.418 35.8782 152.636 36.216C151.703 36.6158 150.563 36.9915 150.042 37.1294C148.707 37.4775 147.424 37.6982 146.124 37.7085C144.265 37.7257 142.662 37.2845 141.523 36.1574C140.933 36.2297 140.336 36.2711 139.736 36.2711C139.167 36.2711 138.604 36.2366 138.045 36.1677C136.902 37.288 135.307 37.7257 133.454 37.7085C132.154 37.6982 130.871 37.4775 129.533 37.1294C129.015 36.9915 127.876 36.6158 126.943 36.216C126.161 35.8782 125.512 35.5266 124.994 35.1129C124.558 34.7648 124.205 34.3753 123.958 33.872C123.618 33.1826 123.553 32.3898 123.814 31.6453C123.574 31.0765 123.512 30.4251 123.701 29.7046C123.786 29.3772 123.927 29.0739 124.106 28.805C124.068 28.6637 124.037 28.5189 124.016 28.3603C123.886 27.4159 124.212 26.5541 124.826 25.8854C125.128 25.5511 125.454 25.3201 125.793 25.1719C125.543 24.1033 125.413 23.0038 125.413 21.88C125.413 13.9314 131.825 7.48898 139.736 7.48898C142.453 7.48898 144.995 8.24731 147.164 9.57095C147.555 9.81224 147.939 10.0708 148.306 10.3465C148.488 10.4844 148.67 10.6257 148.845 10.7739C149.023 10.9187 149.198 11.0704 149.366 11.2255C149.874 11.6908 150.351 12.1906 150.786 12.7249C150.934 12.9007 151.075 13.0834 151.212 13.2695C151.49 13.6384 151.747 14.021 151.984 14.4174C152.344 15.0103 152.66 15.6307 152.934 16.2753C153.116 16.7062 153.274 17.1474 153.414 17.5989C153.624 18.2745 153.785 18.9708 153.895 19.6878C153.929 19.9256 153.96 20.1669 153.984 20.4082C154.032 20.8908 154.059 21.3802 154.059 21.88C154.059 22.99 153.929 24.0792 153.685 25.1305C154.063 25.2788 154.42 25.52 154.752 25.8854C155.367 26.5541 155.692 27.4193 155.562 28.3638C155.542 28.5189 155.511 28.6637 155.473 28.805C155.651 29.0739 155.792 29.3772 155.878 29.7046C156.066 30.4251 156.005 31.0765 155.768 31.6453Z" fill="white"/>
<path d="M139.629 33.8583C146.213 33.8583 151.551 28.4954 151.551 21.8801C151.551 15.2647 146.213 9.90188 139.629 9.90188C133.045 9.90188 127.707 15.2647 127.707 21.8801C127.707 28.4954 133.045 33.8583 139.629 33.8583Z" fill="#FFD21E"/>
<path d="M151.551 21.8801C151.551 15.2647 146.213 9.90191 139.629 9.90191C133.044 9.90191 127.707 15.2647 127.707 21.8801C127.707 28.4955 133.044 33.8583 139.629 33.8583C146.213 33.8583 151.551 28.4955 151.551 21.8801ZM126.334 21.8801C126.334 14.5032 132.286 8.52312 139.629 8.52312C146.971 8.52312 152.923 14.5032 152.923 21.8801C152.923 29.257 146.971 35.2371 139.629 35.2371C132.286 35.2371 126.334 29.257 126.334 21.8801Z" fill="#FF9D00"/>
<path d="M143.503 18.6197C143.94 18.7748 144.114 19.6779 144.555 19.442C145.392 18.9951 145.709 17.9515 145.265 17.1111C144.82 16.2707 143.781 15.9516 142.945 16.3985C142.108 16.8453 141.791 17.8889 142.235 18.7293C142.445 19.126 143.112 18.481 143.503 18.6197Z" fill="#32343D"/>
<path d="M135.42 18.6197C134.983 18.7748 134.809 19.6779 134.367 19.442C133.53 18.9951 133.213 17.9515 133.658 17.1111C134.102 16.2707 135.141 15.9516 135.978 16.3985C136.814 16.8453 137.132 17.8889 136.687 18.7293C136.477 19.126 135.811 18.481 135.42 18.6197Z" fill="#32343D"/>
<path d="M139.543 26.8916C142.915 26.8916 144.003 23.871 144.003 22.3199C144.003 21.5138 143.464 21.7675 142.6 22.1972C141.801 22.5943 140.726 23.1417 139.543 23.1417C137.08 23.1417 135.083 20.7688 135.083 22.3199C135.083 23.871 136.171 26.8916 139.543 26.8916Z" fill="#32343D"/>
<mask id="mask0_619_441" style="mask-type:alpha" maskUnits="userSpaceOnUse" x="135" y="21" width="10" height="6">
<path d="M139.543 26.8916C142.915 26.8916 144.003 23.871 144.003 22.3199C144.003 21.5138 143.464 21.7675 142.6 22.1972C141.801 22.5943 140.726 23.1417 139.543 23.1417C137.08 23.1417 135.083 20.7688 135.083 22.3199C135.083 23.871 136.171 26.8916 139.543 26.8916Z" fill="white"/>
</mask>
<g mask="url(#mask0_619_441)">
<path d="M139.628 30.4112C141.271 30.4112 142.603 29.0728 142.603 27.4217C142.603 26.1357 141.795 25.0393 140.661 24.6174C140.619 24.6018 140.577 24.5872 140.535 24.5736C140.249 24.4817 139.944 25.4691 139.628 25.4691C139.332 25.4691 139.047 24.4754 138.777 24.556C137.548 24.9236 136.652 26.0675 136.652 27.4217C136.652 29.0728 137.985 30.4112 139.628 30.4112Z" fill="#FF323D"/>
</g>
<g style="mix-blend-mode:multiply">
<path d="M147.691 20.2428C148.306 20.2428 148.806 19.7412 148.806 19.1225C148.806 18.5038 148.306 18.0023 147.691 18.0023C147.075 18.0023 146.576 18.5038 146.576 19.1225C146.576 19.7412 147.075 20.2428 147.691 20.2428Z" fill="#FFD21E"/>
</g>
<g style="mix-blend-mode:multiply">
<path d="M131.737 20.2428C132.353 20.2428 132.852 19.7412 132.852 19.1225C132.852 18.5038 132.353 18.0023 131.737 18.0023C131.121 18.0023 130.622 18.5038 130.622 19.1225C130.622 19.7412 131.121 20.2428 131.737 20.2428Z" fill="#FFD21E"/>
</g>
<path d="M129.442 24.0345C128.887 24.0345 128.391 24.2637 128.044 24.6794C127.83 24.9369 127.607 25.3519 127.588 25.9734C127.356 25.9062 127.132 25.8686 126.922 25.8686C126.39 25.8686 125.91 26.0733 125.571 26.4453C125.134 26.9227 124.94 27.5093 125.025 28.0964C125.065 28.3759 125.158 28.6265 125.297 28.8585C125.004 29.0967 124.788 29.4283 124.684 29.8271C124.602 30.1397 124.518 30.7908 124.955 31.4616C124.928 31.5054 124.902 31.5509 124.877 31.5974C124.614 32.0986 124.598 32.665 124.829 33.1923C125.181 33.9917 126.055 34.6215 127.752 35.2974C128.807 35.7179 129.773 35.9868 129.782 35.9892C131.177 36.3529 132.44 36.5376 133.532 36.5376C135.541 36.5376 136.978 35.9196 137.806 34.7007C139.138 32.738 138.947 30.9429 137.224 29.2125C136.27 28.2549 135.636 26.843 135.504 26.5332C135.238 25.6156 134.534 24.5956 133.364 24.5956H133.363C133.265 24.5956 133.166 24.6035 133.067 24.6191C132.555 24.7001 132.107 24.9965 131.787 25.4425C131.441 25.011 131.106 24.6677 130.802 24.4739C130.344 24.1823 129.887 24.0345 129.442 24.0345ZM129.442 25.4132C129.617 25.4132 129.831 25.488 130.067 25.6383C130.799 26.1047 132.211 28.5434 132.728 29.492C132.901 29.8098 133.197 29.9443 133.464 29.9443C133.993 29.9443 134.406 29.4159 133.512 28.7444C132.168 27.7341 132.64 26.0826 133.281 25.981C133.309 25.9765 133.337 25.9744 133.364 25.9744C133.947 25.9744 134.204 26.9844 134.204 26.9844C134.204 26.9844 134.958 28.8871 136.254 30.1876C137.549 31.4885 137.616 32.5326 136.672 33.9238C136.028 34.8724 134.795 35.1588 133.532 35.1588C132.222 35.1588 130.879 34.8507 130.126 34.6545C130.089 34.6449 125.512 33.3457 126.091 32.2399C126.189 32.0542 126.349 31.9797 126.551 31.9797C127.368 31.9797 128.853 33.2006 129.492 33.2006C129.634 33.2006 129.735 33.1396 129.776 32.9907C130.048 32.01 125.639 31.5978 126.011 30.1773C126.077 29.926 126.254 29.824 126.504 29.8243C127.583 29.8243 130.004 31.7308 130.511 31.7308C130.55 31.7308 130.578 31.7195 130.593 31.6953C130.847 31.2831 130.708 30.9952 128.916 29.9057C127.124 28.8157 125.866 28.1601 126.582 27.3777C126.664 27.2874 126.781 27.2474 126.922 27.2474C128.01 27.2477 130.58 29.5978 130.58 29.5978C130.58 29.5978 131.274 30.3227 131.694 30.3227C131.79 30.3227 131.872 30.2845 131.928 30.19C132.225 29.6861 129.165 27.3559 128.992 26.3946C128.875 25.7431 129.074 25.4132 129.442 25.4132Z" fill="#FF9D00"/>
<path d="M136.672 33.9238C137.616 32.5326 137.549 31.4885 136.253 30.1876C134.958 28.8871 134.204 26.9843 134.204 26.9843C134.204 26.9843 133.922 25.8792 133.281 25.9809C132.639 26.0826 132.168 27.734 133.512 28.7444C134.856 29.7543 133.244 30.4406 132.727 29.492C132.21 28.5434 130.798 26.1047 130.066 25.6383C129.335 25.1719 128.819 25.4332 128.992 26.3946C129.164 27.3559 132.225 29.6861 131.927 30.1904C131.629 30.6943 130.58 29.5978 130.58 29.5978C130.58 29.5978 127.296 26.5952 126.581 27.3776C125.866 28.1601 127.123 28.8157 128.915 29.9056C130.708 30.9952 130.846 31.283 130.592 31.6953C130.338 32.1076 126.382 28.7568 126.01 30.1773C125.639 31.5977 130.047 32.01 129.775 32.9907C129.503 33.9717 126.67 31.1345 126.091 32.2399C125.511 33.3457 130.089 34.6449 130.126 34.6545C131.604 35.0399 135.36 35.8565 136.672 33.9238Z" fill="#FFD21E"/>
<path d="M149.986 24.0345C150.542 24.0345 151.038 24.2637 151.384 24.6794C151.598 24.9369 151.822 25.3519 151.84 25.9734C152.073 25.9062 152.297 25.8686 152.506 25.8686C153.038 25.8686 153.519 26.0733 153.858 26.4453C154.295 26.9227 154.488 27.5093 154.404 28.0964C154.364 28.3759 154.271 28.6265 154.132 28.8585C154.425 29.0967 154.641 29.4283 154.745 29.8271C154.827 30.1397 154.91 30.7908 154.473 31.4616C154.501 31.5054 154.527 31.5509 154.552 31.5974C154.814 32.0986 154.831 32.665 154.599 33.1923C154.248 33.9917 153.374 34.6215 151.677 35.2974C150.621 35.7179 149.656 35.9868 149.647 35.9892C148.251 36.3529 146.989 36.5376 145.896 36.5376C143.888 36.5376 142.45 35.9196 141.623 34.7007C140.291 32.738 140.481 30.9429 142.205 29.2125C143.158 28.2549 143.792 26.843 143.924 26.5332C144.191 25.6156 144.895 24.5956 146.065 24.5956H146.065C146.164 24.5956 146.263 24.6035 146.361 24.6191C146.874 24.7001 147.322 24.9965 147.642 25.4425C147.987 25.011 148.323 24.6677 148.627 24.4739C149.084 24.1823 149.542 24.0345 149.986 24.0345ZM149.986 25.4132C149.811 25.4132 149.598 25.488 149.362 25.6383C148.63 26.1047 147.218 28.5434 146.701 29.492C146.528 29.8098 146.232 29.9443 145.965 29.9443C145.436 29.9443 145.023 29.4159 145.917 28.7444C147.26 27.7341 146.789 26.0826 146.148 25.981C146.119 25.9765 146.092 25.9744 146.065 25.9744C145.482 25.9744 145.224 26.9844 145.224 26.9844C145.224 26.9844 144.47 28.8871 143.175 30.1876C141.879 31.4885 141.812 32.5326 142.757 33.9238C143.401 34.8724 144.633 35.1588 145.896 35.1588C147.207 35.1588 148.55 34.8507 149.302 34.6545C149.34 34.6449 153.917 33.3457 153.337 32.2399C153.24 32.0542 153.079 31.9797 152.877 31.9797C152.061 31.9797 150.576 33.2006 149.937 33.2006C149.794 33.2006 149.694 33.1396 149.653 32.9907C149.381 32.01 153.789 31.5978 153.418 30.1773C153.352 29.926 153.174 29.824 152.925 29.8243C151.846 29.8243 149.425 31.7308 148.918 31.7308C148.879 31.7308 148.851 31.7195 148.836 31.6953C148.582 31.2831 148.721 30.9952 150.513 29.9057C152.305 28.8157 153.562 28.1601 152.847 27.3777C152.765 27.2874 152.648 27.2474 152.506 27.2474C151.419 27.2477 148.848 29.5978 148.848 29.5978C148.848 29.5978 148.155 30.3227 147.735 30.3227C147.639 30.3227 147.557 30.2845 147.501 30.19C147.204 29.6861 150.264 27.3559 150.436 26.3946C150.553 25.7431 150.354 25.4132 149.986 25.4132Z" fill="#FF9D00"/>
<path d="M142.756 33.9238C141.812 32.5326 141.878 31.4885 143.174 30.1876C144.469 28.8871 145.223 26.9843 145.223 26.9843C145.223 26.9843 145.505 25.8792 146.147 25.9809C146.788 26.0826 147.259 27.734 145.915 28.7444C144.572 29.7543 146.183 30.4406 146.7 29.492C147.217 28.5434 148.629 26.1047 149.361 25.6383C150.093 25.1719 150.608 25.4332 150.435 26.3946C150.263 27.3559 147.202 29.6861 147.5 30.1904C147.798 30.6943 148.847 29.5978 148.847 29.5978C148.847 29.5978 152.131 26.5952 152.846 27.3776C153.561 28.1601 152.304 28.8157 150.512 29.9056C148.72 30.9952 148.581 31.283 148.835 31.6953C149.09 32.1076 153.045 28.7568 153.417 30.1773C153.788 31.5977 149.38 32.01 149.652 32.9907C149.924 33.9717 152.757 31.1345 153.336 32.2399C153.916 33.3457 149.339 34.6449 149.302 34.6545C147.823 35.0399 144.068 35.8565 142.756 33.9238Z" fill="#FFD21E"/>
</g>
<path d="M27.5904 30.099V16.6825H31.1804C33.2319 16.6825 34.832 17.2364 35.9808 18.3442C37.1296 19.452 37.704 21.1137 37.704 23.3292C37.704 25.5585 37.1365 27.2475 36.0013 28.3963C34.8662 29.5314 33.3003 30.099 31.3035 30.099H27.5904ZM29.9701 28.1706H31.0163C32.3703 28.1706 33.4165 27.7808 34.155 27.0013C34.8935 26.2081 35.2628 24.984 35.2628 23.3292C35.2628 21.6881 34.8935 20.4914 34.155 19.7392C33.4165 18.987 32.3703 18.6109 31.0163 18.6109H29.9701V28.1706ZM42.648 30.3452C41.7727 30.3452 41.0547 30.0716 40.494 29.5246C39.9469 28.9775 39.6734 28.2664 39.6734 27.3911C39.6734 26.3106 40.1452 25.4764 41.0889 24.8883C42.0326 24.2866 43.537 23.8763 45.6021 23.6574C45.5884 23.1241 45.4448 22.6659 45.1713 22.283C44.9114 21.8864 44.4396 21.6881 43.7558 21.6881C43.2634 21.6881 42.7779 21.7838 42.2993 21.9753C41.8343 22.1667 41.3761 22.3992 40.9248 22.6727L40.0632 21.0931C40.6239 20.7376 41.253 20.4298 41.9505 20.17C42.6617 19.9101 43.4139 19.7802 44.2071 19.7802C45.4653 19.7802 46.4022 20.1563 47.0176 20.9085C47.6467 21.647 47.9613 22.7206 47.9613 24.1293V30.099H46.0124L45.8483 28.9912H45.7662C45.3149 29.3741 44.8294 29.6955 44.3097 29.9554C43.8037 30.2152 43.2498 30.3452 42.648 30.3452ZM43.407 28.4989C43.8173 28.4989 44.1866 28.4031 44.5148 28.2117C44.8567 28.0065 45.2192 27.733 45.6021 27.3911V25.1345C44.2345 25.3123 43.284 25.579 42.7506 25.9345C42.2172 26.2765 41.9505 26.7004 41.9505 27.2064C41.9505 27.6578 42.0873 27.986 42.3608 28.1911C42.6343 28.3963 42.9831 28.4989 43.407 28.4989ZM54.013 30.3452C52.8505 30.3452 52.0231 30.0101 51.5308 29.3399C51.0521 28.6561 50.8128 27.774 50.8128 26.6936V21.8932H49.3768V20.129L50.9358 20.0264L51.2231 17.2774H53.1924V20.0264H55.7567V21.8932H53.1924V26.6936C53.1924 27.8697 53.6643 28.4578 54.6079 28.4578C54.7857 28.4578 54.9704 28.4373 55.1618 28.3963C55.3533 28.3416 55.5174 28.2869 55.6542 28.2322L56.0645 29.9759C55.7909 30.0716 55.4764 30.1537 55.1208 30.2221C54.7789 30.3041 54.4096 30.3452 54.013 30.3452ZM59.8769 30.3452C59.0017 30.3452 58.2837 30.0716 57.7229 29.5246C57.1759 28.9775 56.9024 28.2664 56.9024 27.3911C56.9024 26.3106 57.3742 25.4764 58.3178 24.8883C59.2615 24.2866 60.7659 23.8763 62.831 23.6574C62.8174 23.1241 62.6738 22.6659 62.4002 22.283C62.1404 21.8864 61.6685 21.6881 60.9847 21.6881C60.4924 21.6881 60.0069 21.7838 59.5282 21.9753C59.0632 22.1667 58.6051 22.3992 58.1537 22.6727L57.2921 21.0931C57.8529 20.7376 58.482 20.4298 59.1795 20.17C59.8906 19.9101 60.6428 19.7802 61.436 19.7802C62.6943 19.7802 63.6311 20.1563 64.2465 20.9085C64.8756 21.647 65.1902 22.7206 65.1902 24.1293V30.099H63.2413L63.0772 28.9912H62.9951C62.5438 29.3741 62.0583 29.6955 61.5386 29.9554C61.0326 30.2152 60.4787 30.3452 59.8769 30.3452ZM60.636 28.4989C61.0463 28.4989 61.4155 28.4031 61.7438 28.2117C62.0857 28.0065 62.4481 27.733 62.831 27.3911V25.1345C61.4634 25.3123 60.5129 25.579 59.9795 25.9345C59.4461 26.2765 59.1795 26.7004 59.1795 27.2064C59.1795 27.6578 59.3162 27.986 59.5897 28.1911C59.8633 28.3963 60.212 28.4989 60.636 28.4989ZM70.824 30.3452C70.1402 30.3452 69.4563 30.2152 68.7725 29.9554C68.0887 29.6819 67.5006 29.3468 67.0083 28.9502L68.1161 27.4321C68.5674 27.774 69.0187 28.0475 69.47 28.2527C69.9213 28.4578 70.4 28.5604 70.906 28.5604C71.4531 28.5604 71.8565 28.4442 72.1164 28.2117C72.3762 27.9792 72.5062 27.692 72.5062 27.35C72.5062 27.0628 72.3967 26.8303 72.1779 26.6526C71.9728 26.4611 71.7061 26.297 71.3779 26.1602C71.0496 26.0098 70.7077 25.8662 70.3521 25.7294C69.9145 25.5653 69.4769 25.367 69.0392 25.1345C68.6153 24.8883 68.2665 24.5806 67.993 24.2113C67.7195 23.8284 67.5827 23.3566 67.5827 22.7958C67.5827 21.9069 67.9109 21.182 68.5674 20.6213C69.2238 20.0606 70.1128 19.7802 71.2343 19.7802C71.9454 19.7802 72.5814 19.9033 73.1421 20.1495C73.7028 20.3956 74.1883 20.676 74.5986 20.9906L73.5114 22.4266C73.1558 22.1667 72.7934 21.9616 72.4241 21.8111C72.0685 21.647 71.6924 21.565 71.2958 21.565C70.7898 21.565 70.4137 21.6744 70.1675 21.8932C69.9213 22.0983 69.7983 22.3582 69.7983 22.6727C69.7983 23.0694 70.0034 23.3702 70.4137 23.5754C70.824 23.7805 71.3026 23.9788 71.8497 24.1703C72.3147 24.3344 72.766 24.5396 73.2037 24.7857C73.6413 25.0182 74.0037 25.326 74.2909 25.7089C74.5918 26.0918 74.7422 26.5978 74.7422 27.227C74.7422 28.0886 74.4072 28.8271 73.737 29.4425C73.0669 30.0443 72.0959 30.3452 70.824 30.3452ZM81.1564 30.3452C80.2264 30.3452 79.3853 30.14 78.6331 29.7297C77.8809 29.3058 77.286 28.704 76.8483 27.9245C76.4107 27.1312 76.1919 26.1807 76.1919 25.0729C76.1919 23.9788 76.4107 23.0352 76.8483 22.2419C77.2997 21.4487 77.8809 20.8401 78.5921 20.4162C79.3032 19.9922 80.0486 19.7802 80.8281 19.7802C81.7444 19.7802 82.5103 19.9854 83.1258 20.3956C83.7412 20.7923 84.2062 21.353 84.5207 22.0778C84.8353 22.789 84.9926 23.6164 84.9926 24.5601C84.9926 25.0524 84.9584 25.4354 84.89 25.7089H78.4895C78.5989 26.5978 78.9203 27.2885 79.4537 27.7808C79.987 28.2732 80.6572 28.5194 81.4641 28.5194C81.9017 28.5194 82.3052 28.4578 82.6744 28.3347C83.0574 28.198 83.4335 28.0133 83.8027 27.7808L84.6028 29.2579C84.1241 29.5724 83.5908 29.8323 83.0027 30.0374C82.4146 30.2426 81.7992 30.3452 81.1564 30.3452ZM78.469 24.1088H82.9411C82.9411 23.3292 82.7702 22.7206 82.4283 22.283C82.0864 21.8317 81.5735 21.606 80.8897 21.606C80.3016 21.606 79.7751 21.8248 79.3101 22.2625C78.8587 22.6864 78.5784 23.3019 78.469 24.1088ZM90.5945 30.3452C89.432 30.3452 88.6046 30.0101 88.1122 29.3399C87.6335 28.6561 87.3942 27.774 87.3942 26.6936V21.8932H85.9582V20.129L87.5173 20.0264L87.8045 17.2774H89.7739V20.0264H92.3382V21.8932H89.7739V26.6936C89.7739 27.8697 90.2457 28.4578 91.1894 28.4578C91.3672 28.4578 91.5518 28.4373 91.7433 28.3963C91.9347 28.3416 92.0989 28.2869 92.2356 28.2322L92.6459 29.9759C92.3724 30.0716 92.0578 30.1537 91.7022 30.2221C91.3603 30.3041 90.9911 30.3452 90.5945 30.3452ZM102.627 30.3452C100.185 30.3452 98.0109 28.4373 98.0109 25.1345C98.0109 21.7906 100.185 19.8828 102.627 19.8828C105.068 19.8828 107.242 21.7906 107.242 25.1345C107.242 28.4373 105.068 30.3452 102.627 30.3452ZM102.627 28.9502C104.35 28.9502 105.499 27.4116 105.499 25.1345C105.499 22.8369 104.35 21.2778 102.627 21.2778C100.924 21.2778 99.7546 22.8369 99.7546 25.1345C99.7546 27.4116 100.924 28.9502 102.627 28.9502ZM109.868 30.099V20.129H111.263L111.407 21.565H111.468C112.412 20.6213 113.438 19.8828 114.812 19.8828C116.905 19.8828 117.848 21.2367 117.848 23.7805V30.099H116.166V24.0062C116.166 22.1394 115.592 21.3393 114.279 21.3393C113.253 21.3393 112.556 21.8727 111.55 22.8779V30.099H109.868Z" fill="#2C3236"/>
<defs>
<filter id="filter0_d_619_441" x="116.683" y="2.17576" width="46.2133" height="44.0344" filterUnits="userSpaceOnUse" color-interpolation-filters="sRGB">
<feFlood flood-opacity="0" result="BackgroundImageFix"/>
<feColorMatrix in="SourceAlpha" type="matrix" values="0 0 0 0 0 0 0 0 0 0 0 0 0 0 0 0 0 0 127 0" result="hardAlpha"/>
<feOffset dy="1.59397"/>
<feGaussianBlur stdDeviation="3.4536"/>
<feColorMatrix type="matrix" values="0 0 0 0 0 0 0 0 0 0 0 0 0 0 0 0 0 0 0.1 0"/>
<feBlend mode="normal" in2="BackgroundImageFix" result="effect1_dropShadow_619_441"/>
<feBlend mode="normal" in="SourceGraphic" in2="effect1_dropShadow_619_441" result="shape"/>
</filter>
<linearGradient id="paint0_linear_619_441" x1="0.805176" y1="24" x2="92.2561" y2="24" gradientUnits="userSpaceOnUse">
<stop stop-color="#F5F9FA"/>
<stop offset="1" stop-color="white"/>
</linearGradient>
</defs>
</svg>
