<svg width="166" height="48" viewBox="0 0 166 48" fill="none" xmlns="http://www.w3.org/2000/svg">
<path d="M24.9446 0.75H141.72C154.631 0.75 165.091 11.1629 165.091 24C165.091 36.8371 154.631 47.25 141.72 47.25H24.9445C12.0334 47.25 1.57324 36.8371 1.57324 24C1.57324 11.1629 12.0334 0.75 24.9446 0.75Z" fill="url(#paint0_linear_619_702)" stroke="#EFEFEF" stroke-width="1.5"/>
<g filter="url(#filter0_d_619_702)">
<path d="M143.14 31.6453C143.397 32.3898 143.336 33.1826 142.993 33.872C142.745 34.3753 142.392 34.7648 141.96 35.1129C141.438 35.5266 140.79 35.8782 140.008 36.216C139.075 36.6158 137.936 36.9915 137.414 37.1294C136.08 37.4775 134.796 37.6982 133.496 37.7085C131.637 37.7257 130.035 37.2845 128.896 36.1574C128.305 36.2297 127.708 36.2711 127.108 36.2711C126.539 36.2711 125.976 36.2366 125.417 36.1677C124.274 37.288 122.679 37.7257 120.826 37.7085C119.526 37.6982 118.243 37.4775 116.905 37.1294C116.387 36.9915 115.248 36.6158 114.315 36.216C113.533 35.8782 112.884 35.5266 112.366 35.1129C111.93 34.7648 111.577 34.3753 111.33 33.872C110.99 33.1826 110.925 32.3898 111.186 31.6453C110.946 31.0765 110.884 30.4251 111.073 29.7046C111.159 29.3772 111.299 29.0739 111.478 28.805C111.44 28.6637 111.409 28.5189 111.388 28.3603C111.258 27.4159 111.584 26.5541 112.198 25.8854C112.5 25.5511 112.826 25.3201 113.166 25.1719C112.915 24.1033 112.785 23.0038 112.785 21.88C112.785 13.9314 119.197 7.48898 127.108 7.48898C129.825 7.48898 132.367 8.24731 134.536 9.57095C134.927 9.81224 135.311 10.0708 135.678 10.3465C135.86 10.4844 136.042 10.6257 136.217 10.7739C136.395 10.9187 136.57 11.0704 136.738 11.2255C137.246 11.6908 137.723 12.1906 138.159 12.7249C138.306 12.9007 138.447 13.0834 138.584 13.2695C138.862 13.6384 139.119 14.021 139.356 14.4174C139.716 15.0103 140.032 15.6307 140.306 16.2753C140.488 16.7062 140.646 17.1474 140.787 17.5989C140.996 18.2745 141.157 18.9708 141.267 19.6878C141.301 19.9256 141.332 20.1669 141.356 20.4082C141.404 20.8908 141.432 21.3802 141.432 21.88C141.432 22.99 141.301 24.0792 141.058 25.1305C141.435 25.2788 141.792 25.52 142.125 25.8854C142.739 26.5541 143.065 27.4193 142.934 28.3638C142.914 28.5189 142.883 28.6637 142.845 28.805C143.023 29.0739 143.164 29.3772 143.25 29.7046C143.439 30.4251 143.377 31.0765 143.14 31.6453Z" fill="white"/>
<path d="M127.001 33.8583C133.585 33.8583 138.923 28.4954 138.923 21.8801C138.923 15.2647 133.585 9.90188 127.001 9.90188C120.417 9.90188 115.079 15.2647 115.079 21.8801C115.079 28.4954 120.417 33.8583 127.001 33.8583Z" fill="#FFD21E"/>
<path d="M138.923 21.8801C138.923 15.2647 133.585 9.90191 127.001 9.90191C120.416 9.90191 115.079 15.2647 115.079 21.8801C115.079 28.4955 120.416 33.8583 127.001 33.8583C133.585 33.8583 138.923 28.4955 138.923 21.8801ZM113.707 21.8801C113.707 14.5032 119.659 8.52312 127.001 8.52312C134.343 8.52312 140.295 14.5032 140.295 21.8801C140.295 29.257 134.343 35.2371 127.001 35.2371C119.659 35.2371 113.707 29.257 113.707 21.8801Z" fill="#FF9D00"/>
<path d="M130.875 18.6197C131.312 18.7748 131.486 19.6779 131.927 19.442C132.764 18.9951 133.082 17.9515 132.637 17.1111C132.192 16.2707 131.153 15.9516 130.317 16.3985C129.48 16.8453 129.163 17.8889 129.608 18.7293C129.817 19.126 130.484 18.481 130.875 18.6197Z" fill="#32343D"/>
<path d="M122.792 18.6197C122.355 18.7748 122.181 19.6779 121.739 19.442C120.903 18.9951 120.585 17.9515 121.03 17.1111C121.475 16.2707 122.513 15.9516 123.35 16.3985C124.186 16.8453 124.504 17.8889 124.059 18.7293C123.849 19.126 123.183 18.481 122.792 18.6197Z" fill="#32343D"/>
<path d="M126.915 26.8916C130.287 26.8916 131.375 23.871 131.375 22.3199C131.375 21.5138 130.836 21.7675 129.972 22.1972C129.174 22.5943 128.098 23.1417 126.915 23.1417C124.452 23.1417 122.455 20.7688 122.455 22.3199C122.455 23.871 123.543 26.8916 126.915 26.8916Z" fill="#32343D"/>
<mask id="mask0_619_702" style="mask-type:alpha" maskUnits="userSpaceOnUse" x="122" y="21" width="10" height="6">
<path d="M126.915 26.8916C130.287 26.8916 131.375 23.871 131.375 22.3199C131.375 21.5138 130.836 21.7675 129.972 22.1972C129.174 22.5943 128.098 23.1417 126.915 23.1417C124.452 23.1417 122.455 20.7688 122.455 22.3199C122.455 23.871 123.543 26.8916 126.915 26.8916Z" fill="white"/>
</mask>
<g mask="url(#mask0_619_702)">
<path d="M127 30.4112C128.643 30.4112 129.975 29.0728 129.975 27.4217C129.975 26.1357 129.167 25.0393 128.033 24.6174C127.992 24.6018 127.949 24.5872 127.907 24.5736C127.621 24.4817 127.316 25.4691 127 25.4691C126.704 25.4691 126.419 24.4754 126.15 24.556C124.921 24.9236 124.024 26.0675 124.024 27.4217C124.024 29.0728 125.357 30.4112 127 30.4112Z" fill="#FF323D"/>
</g>
<g style="mix-blend-mode:multiply">
<path d="M135.063 20.2428C135.679 20.2428 136.178 19.7412 136.178 19.1225C136.178 18.5038 135.679 18.0023 135.063 18.0023C134.447 18.0023 133.948 18.5038 133.948 19.1225C133.948 19.7412 134.447 20.2428 135.063 20.2428Z" fill="#FFD21E"/>
</g>
<g style="mix-blend-mode:multiply">
<path d="M119.109 20.2428C119.725 20.2428 120.224 19.7412 120.224 19.1225C120.224 18.5038 119.725 18.0023 119.109 18.0023C118.493 18.0023 117.994 18.5038 117.994 19.1225C117.994 19.7412 118.493 20.2428 119.109 20.2428Z" fill="#FFD21E"/>
</g>
<path d="M116.815 24.0345C116.259 24.0345 115.763 24.2637 115.417 24.6794C115.202 24.9369 114.979 25.3519 114.961 25.9734C114.728 25.9062 114.504 25.8686 114.294 25.8686C113.763 25.8686 113.282 26.0733 112.943 26.4453C112.506 26.9227 112.312 27.5093 112.397 28.0964C112.437 28.3759 112.53 28.6265 112.669 28.8585C112.376 29.0967 112.16 29.4283 112.056 29.8271C111.974 30.1397 111.89 30.7908 112.327 31.4616C112.3 31.5054 112.274 31.5509 112.249 31.5974C111.986 32.0986 111.97 32.665 112.202 33.1923C112.553 33.9917 113.427 34.6215 115.124 35.2974C116.18 35.7179 117.145 35.9868 117.154 35.9892C118.549 36.3529 119.812 36.5376 120.904 36.5376C122.913 36.5376 124.351 35.9196 125.178 34.7007C126.51 32.738 126.319 30.9429 124.596 29.2125C123.642 28.2549 123.008 26.843 122.876 26.5332C122.61 25.6156 121.906 24.5956 120.736 24.5956H120.736C120.637 24.5956 120.538 24.6035 120.439 24.6191C119.927 24.7001 119.479 24.9965 119.159 25.4425C118.813 25.011 118.478 24.6677 118.174 24.4739C117.716 24.1823 117.259 24.0345 116.815 24.0345ZM116.815 25.4132C116.99 25.4132 117.203 25.488 117.439 25.6383C118.171 26.1047 119.583 28.5434 120.1 29.492C120.273 29.8098 120.569 29.9443 120.836 29.9443C121.365 29.9443 121.778 29.4159 120.884 28.7444C119.54 27.7341 120.012 26.0826 120.653 25.981C120.681 25.9765 120.709 25.9744 120.736 25.9744C121.319 25.9744 121.576 26.9844 121.576 26.9844C121.576 26.9844 122.331 28.8871 123.626 30.1876C124.921 31.4885 124.988 32.5326 124.044 33.9238C123.4 34.8724 122.168 35.1588 120.904 35.1588C119.594 35.1588 118.251 34.8507 117.498 34.6545C117.461 34.6449 112.884 33.3457 113.463 32.2399C113.561 32.0542 113.721 31.9797 113.923 31.9797C114.74 31.9797 116.225 33.2006 116.864 33.2006C117.006 33.2006 117.107 33.1396 117.148 32.9907C117.42 32.01 113.012 31.5978 113.383 30.1773C113.449 29.926 113.626 29.824 113.876 29.8243C114.955 29.8243 117.376 31.7308 117.883 31.7308C117.922 31.7308 117.95 31.7195 117.965 31.6953C118.219 31.2831 118.08 30.9952 116.288 29.9057C114.496 28.8157 113.238 28.1601 113.954 27.3777C114.036 27.2874 114.153 27.2474 114.294 27.2474C115.382 27.2477 117.953 29.5978 117.953 29.5978C117.953 29.5978 118.646 30.3227 119.066 30.3227C119.162 30.3227 119.244 30.2845 119.3 30.19C119.597 29.6861 116.537 27.3559 116.364 26.3946C116.247 25.7431 116.446 25.4132 116.815 25.4132Z" fill="#FF9D00"/>
<path d="M124.044 33.9238C124.988 32.5326 124.921 31.4885 123.625 30.1876C122.33 28.8871 121.576 26.9843 121.576 26.9843C121.576 26.9843 121.294 25.8792 120.653 25.9809C120.011 26.0826 119.54 27.734 120.884 28.7444C122.228 29.7543 120.616 30.4406 120.099 29.492C119.582 28.5434 118.171 26.1047 117.438 25.6383C116.707 25.1719 116.191 25.4332 116.364 26.3946C116.536 27.3559 119.597 29.6861 119.299 30.1904C119.001 30.6943 117.952 29.5978 117.952 29.5978C117.952 29.5978 114.668 26.5952 113.953 27.3776C113.238 28.1601 114.496 28.8157 116.287 29.9056C118.08 30.9952 118.219 31.283 117.964 31.6953C117.71 32.1076 113.754 28.7568 113.383 30.1773C113.011 31.5977 117.42 32.01 117.147 32.9907C116.875 33.9717 114.042 31.1345 113.463 32.2399C112.883 33.3457 117.461 34.6449 117.498 34.6545C118.976 35.0399 122.732 35.8565 124.044 33.9238Z" fill="#FFD21E"/>
<path d="M137.358 24.0345C137.914 24.0345 138.41 24.2637 138.756 24.6794C138.97 24.9369 139.194 25.3519 139.212 25.9734C139.445 25.9062 139.669 25.8686 139.879 25.8686C140.41 25.8686 140.891 26.0733 141.23 26.4453C141.667 26.9227 141.86 27.5093 141.776 28.0964C141.736 28.3759 141.643 28.6265 141.504 28.8585C141.797 29.0967 142.013 29.4283 142.117 29.8271C142.199 30.1397 142.282 30.7908 141.845 31.4616C141.873 31.5054 141.899 31.5509 141.924 31.5974C142.186 32.0986 142.203 32.665 141.971 33.1923C141.62 33.9917 140.746 34.6215 139.049 35.2974C137.993 35.7179 137.028 35.9868 137.019 35.9892C135.623 36.3529 134.361 36.5376 133.269 36.5376C131.26 36.5376 129.822 35.9196 128.995 34.7007C127.663 32.738 127.853 30.9429 129.577 29.2125C130.53 28.2549 131.164 26.843 131.297 26.5332C131.563 25.6156 132.267 24.5956 133.437 24.5956H133.437C133.536 24.5956 133.635 24.6035 133.733 24.6191C134.246 24.7001 134.694 24.9965 135.014 25.4425C135.36 25.011 135.695 24.6677 135.999 24.4739C136.456 24.1823 136.914 24.0345 137.358 24.0345ZM137.358 25.4132C137.183 25.4132 136.97 25.488 136.734 25.6383C136.002 26.1047 134.59 28.5434 134.073 29.492C133.9 29.8098 133.604 29.9443 133.337 29.9443C132.808 29.9443 132.395 29.4159 133.289 28.7444C134.633 27.7341 134.161 26.0826 133.52 25.981C133.491 25.9765 133.464 25.9744 133.437 25.9744C132.854 25.9744 132.596 26.9844 132.596 26.9844C132.596 26.9844 131.842 28.8871 130.547 30.1876C129.251 31.4885 129.185 32.5326 130.129 33.9238C130.773 34.8724 132.005 35.1588 133.269 35.1588C134.579 35.1588 135.922 34.8507 136.675 34.6545C136.712 34.6449 141.289 33.3457 140.709 32.2399C140.612 32.0542 140.451 31.9797 140.249 31.9797C139.433 31.9797 137.948 33.2006 137.309 33.2006C137.167 33.2006 137.066 33.1396 137.025 32.9907C136.753 32.01 141.161 31.5978 140.79 30.1773C140.724 29.926 140.547 29.824 140.297 29.8243C139.218 29.8243 136.797 31.7308 136.29 31.7308C136.251 31.7308 136.223 31.7195 136.208 31.6953C135.954 31.2831 136.093 30.9952 137.885 29.9057C139.677 28.8157 140.935 28.1601 140.219 27.3777C140.137 27.2874 140.02 27.2474 139.879 27.2474C138.791 27.2477 136.22 29.5978 136.22 29.5978C136.22 29.5978 135.527 30.3227 135.107 30.3227C135.011 30.3227 134.929 30.2845 134.873 30.19C134.576 29.6861 137.636 27.3559 137.808 26.3946C137.925 25.7431 137.726 25.4132 137.358 25.4132Z" fill="#FF9D00"/>
<path d="M130.128 33.9238C129.184 32.5326 129.251 31.4885 130.546 30.1876C131.841 28.8871 132.595 26.9843 132.595 26.9843C132.595 26.9843 132.877 25.8792 133.519 25.9809C134.16 26.0826 134.631 27.734 133.287 28.7444C131.944 29.7543 133.555 30.4406 134.072 29.492C134.589 28.5434 136.001 26.1047 136.733 25.6383C137.465 25.1719 137.98 25.4332 137.807 26.3946C137.635 27.3559 134.574 29.6861 134.872 30.1904C135.17 30.6943 136.219 29.5978 136.219 29.5978C136.219 29.5978 139.503 26.5952 140.218 27.3776C140.933 28.1601 139.676 28.8157 137.884 29.9056C136.092 30.9952 135.953 31.283 136.207 31.6953C136.462 32.1076 140.417 28.7568 140.789 30.1773C141.16 31.5977 136.752 32.01 137.024 32.9907C137.296 33.9717 140.129 31.1345 140.709 32.2399C141.288 33.3457 136.711 34.6449 136.674 34.6545C135.195 35.0399 131.44 35.8565 130.128 33.9238Z" fill="#FFD21E"/>
</g>
<path d="M27.6085 30.099V16.6825H30.2959L32.6755 23.2472C32.826 23.6711 32.9696 24.1088 33.1063 24.5601C33.2568 24.9977 33.4004 25.4354 33.5371 25.873H33.6192C33.7696 25.4354 33.9132 24.9977 34.05 24.5601C34.1868 24.1088 34.3235 23.6711 34.4603 23.2472L36.7784 16.6825H39.4863V30.099H37.2913V23.9652C37.2913 23.5412 37.305 23.083 37.3323 22.5907C37.3733 22.0847 37.4144 21.5786 37.4554 21.0726C37.5101 20.5666 37.558 20.1084 37.599 19.6982H37.5169L36.4297 22.8164L34.2346 28.8476H32.8191L30.6036 22.8164L29.5368 19.6982H29.4548C29.4958 20.1084 29.5368 20.5666 29.5778 21.0726C29.6326 21.5786 29.6736 22.0847 29.7009 22.5907C29.742 23.083 29.7625 23.5412 29.7625 23.9652V30.099H27.6085ZM46.8124 30.3452C45.9781 30.3452 45.1986 30.14 44.4738 29.7297C43.7489 29.3058 43.1608 28.704 42.7095 27.9245C42.2582 27.1312 42.0325 26.1807 42.0325 25.0729C42.0325 23.9515 42.2582 23.001 42.7095 22.2214C43.1608 21.4282 43.7489 20.8264 44.4738 20.4162C45.1986 19.9922 45.9781 19.7802 46.8124 19.7802C47.6603 19.7802 48.4467 19.9922 49.1716 20.4162C49.8964 20.8264 50.4845 21.4282 50.9358 22.2214C51.3871 23.001 51.6128 23.9515 51.6128 25.0729C51.6128 26.1807 51.3871 27.1312 50.9358 27.9245C50.4845 28.704 49.8964 29.3058 49.1716 29.7297C48.4467 30.14 47.6603 30.3452 46.8124 30.3452ZM46.8124 28.4168C47.5509 28.4168 48.1322 28.1091 48.5561 27.4936C48.9801 26.8782 49.1921 26.0713 49.1921 25.0729C49.1921 24.0609 48.9801 23.2472 48.5561 22.6317C48.1322 22.0163 47.5509 21.7086 46.8124 21.7086C46.0739 21.7086 45.4926 22.0163 45.0687 22.6317C44.6584 23.2472 44.4532 24.0609 44.4532 25.0729C44.4532 26.0713 44.6584 26.8782 45.0687 27.4936C45.4926 28.1091 46.0739 28.4168 46.8124 28.4168ZM57.4764 30.3452C56.2182 30.3452 55.213 29.8802 54.4608 28.9502C53.7086 28.0202 53.3325 26.7278 53.3325 25.0729C53.3325 23.9788 53.5308 23.0352 53.9274 22.2419C54.3377 21.4487 54.8711 20.8401 55.5275 20.4162C56.184 19.9922 56.8746 19.7802 57.5995 19.7802C58.1739 19.7802 58.6594 19.8828 59.056 20.0879C59.4663 20.2794 59.8629 20.5461 60.2458 20.888L60.1638 19.2674V15.6158H62.5229V30.099H60.5741L60.41 29.0117H60.3279C59.9586 29.381 59.5278 29.6955 59.0355 29.9554C58.5431 30.2152 58.0234 30.3452 57.4764 30.3452ZM58.0508 28.3963C58.803 28.3963 59.5073 28.0202 60.1638 27.268V22.5702C59.8219 22.2556 59.48 22.0368 59.1381 21.9137C58.7962 21.7906 58.4542 21.7291 58.1123 21.7291C57.4696 21.7291 56.9157 22.0231 56.4507 22.6112C55.9993 23.1856 55.7737 23.9994 55.7737 25.0524C55.7737 26.1329 55.972 26.9603 56.3686 27.5347C56.7652 28.1091 57.326 28.3963 58.0508 28.3963ZM69.8354 30.3452C68.9054 30.3452 68.0643 30.14 67.3121 29.7297C66.5599 29.3058 65.965 28.704 65.5274 27.9245C65.0897 27.1312 64.8709 26.1807 64.8709 25.0729C64.8709 23.9788 65.0897 23.0352 65.5274 22.2419C65.9787 21.4487 66.5599 20.8401 67.2711 20.4162C67.9822 19.9922 68.7276 19.7802 69.5072 19.7802C70.4235 19.7802 71.1893 19.9854 71.8048 20.3956C72.4202 20.7923 72.8852 21.353 73.1998 22.0778C73.5143 22.789 73.6716 23.6164 73.6716 24.5601C73.6716 25.0524 73.6374 25.4354 73.569 25.7089H67.1685C67.2779 26.5978 67.5993 27.2885 68.1327 27.7808C68.6661 28.2732 69.3362 28.5194 70.1431 28.5194C70.5807 28.5194 70.9842 28.4578 71.3535 28.3347C71.7364 28.198 72.1125 28.0133 72.4818 27.7808L73.2818 29.2579C72.8031 29.5724 72.2698 29.8323 71.6817 30.0374C71.0936 30.2426 70.4782 30.3452 69.8354 30.3452ZM67.148 24.1088H71.6201C71.6201 23.3292 71.4492 22.7206 71.1073 22.283C70.7654 21.8317 70.2525 21.606 69.5687 21.606C68.9806 21.606 68.4541 21.8248 67.9891 22.2625C67.5378 22.6864 67.2574 23.3019 67.148 24.1088ZM78.2224 30.3452C77.3882 30.3452 76.7933 30.0921 76.4377 29.5861C76.0958 29.0801 75.9248 28.3894 75.9248 27.5142V15.6158H78.284V27.6372C78.284 27.9245 78.3387 28.1296 78.4481 28.2527C78.5575 28.3621 78.6738 28.4168 78.7968 28.4168C78.8515 28.4168 78.8994 28.4168 78.9404 28.4168C78.9951 28.4031 79.0704 28.3894 79.1661 28.3758L79.4738 30.14C79.3371 30.1947 79.1593 30.2426 78.9404 30.2836C78.7353 30.3246 78.496 30.3452 78.2224 30.3452ZM89.6629 30.3452C87.2217 30.3452 85.0472 28.4373 85.0472 25.1345C85.0472 21.7906 87.2217 19.8828 89.6629 19.8828C92.1042 19.8828 94.2787 21.7906 94.2787 25.1345C94.2787 28.4373 92.1042 30.3452 89.6629 30.3452ZM89.6629 28.9502C91.3861 28.9502 92.535 27.4116 92.535 25.1345C92.535 22.8369 91.3861 21.2778 89.6629 21.2778C87.9602 21.2778 86.7909 22.8369 86.7909 25.1345C86.7909 27.4116 87.9602 28.9502 89.6629 28.9502ZM96.9044 30.099V20.129H98.2994L98.443 21.565H98.5045C99.4482 20.6213 100.474 19.8828 101.848 19.8828C103.941 19.8828 104.885 21.2367 104.885 23.7805V30.099H103.202V24.0062C103.202 22.1394 102.628 21.3393 101.315 21.3393C100.289 21.3393 99.5918 21.8727 98.5866 22.8779V30.099H96.9044Z" fill="#2C3236"/>
<defs>
<filter id="filter0_d_619_702" x="104.055" y="2.17576" width="46.2133" height="44.0344" filterUnits="userSpaceOnUse" color-interpolation-filters="sRGB">
<feFlood flood-opacity="0" result="BackgroundImageFix"/>
<feColorMatrix in="SourceAlpha" type="matrix" values="0 0 0 0 0 0 0 0 0 0 0 0 0 0 0 0 0 0 127 0" result="hardAlpha"/>
<feOffset dy="1.59397"/>
<feGaussianBlur stdDeviation="3.4536"/>
<feColorMatrix type="matrix" values="0 0 0 0 0 0 0 0 0 0 0 0 0 0 0 0 0 0 0.1 0"/>
<feBlend mode="normal" in2="BackgroundImageFix" result="effect1_dropShadow_619_702"/>
<feBlend mode="normal" in="SourceGraphic" in2="effect1_dropShadow_619_702" result="shape"/>
</filter>
<linearGradient id="paint0_linear_619_702" x1="0.823242" y1="24" x2="92.2742" y2="24" gradientUnits="userSpaceOnUse">
<stop stop-color="#F5F9FA"/>
<stop offset="1" stop-color="white"/>
</linearGradient>
</defs>
</svg>
