<svg width="173" height="48" viewBox="0 0 173 48" fill="none" xmlns="http://www.w3.org/2000/svg">
<path d="M1.07104 24C1.07104 11.16 11.4897 0.75 24.3433 0.75H148.725C161.578 0.75 171.997 11.16 171.997 24C171.997 36.84 161.578 47.25 148.725 47.25H24.3433C11.4897 47.25 1.07104 36.84 1.07104 24Z" fill="url(#paint0_linear_402_77)" stroke="#EFEFEF" stroke-width="1.5"/>
<path d="M56.3464 29.5226V16.8247H60.346C61.2909 16.8247 62.1322 16.9477 62.87 17.1936C63.6078 17.4396 64.1903 17.8473 64.6174 18.4168C65.0446 18.9863 65.2581 19.763 65.2581 20.7467C65.2581 21.6786 65.0446 22.4488 64.6174 23.0571C64.1903 23.6655 63.6143 24.1185 62.8894 24.4162C62.1646 24.7139 61.3427 24.8628 60.4236 24.8628H58.5986V29.5226H56.3464ZM58.5986 23.0571H60.2489C62.1128 23.0571 63.0448 22.287 63.0448 20.7467C63.0448 19.9442 62.7988 19.3941 62.307 19.0964C61.828 18.7857 61.1161 18.6304 60.1712 18.6304H58.5986V23.0571ZM69.0237 29.7555C68.1953 29.7555 67.5158 29.4967 66.9851 28.9789C66.4673 28.4612 66.2084 27.7881 66.2084 26.9597C66.2084 25.9371 66.655 25.1476 67.5481 24.591C68.4412 24.0215 69.8651 23.6331 71.8196 23.426C71.8066 22.9212 71.6707 22.4876 71.4118 22.1252C71.1659 21.7498 70.7193 21.5621 70.0722 21.5621C69.6062 21.5621 69.1467 21.6527 68.6936 21.834C68.2536 22.0152 67.8199 22.2352 67.3928 22.4941L66.5773 20.9991C67.108 20.6626 67.7034 20.3713 68.3636 20.1254C69.0367 19.8795 69.7486 19.7565 70.4993 19.7565C71.6901 19.7565 72.5768 20.1124 73.1592 20.8243C73.7546 21.5233 74.0524 22.5394 74.0524 23.8726V29.5226H72.2079L72.0525 28.4741H71.9749C71.5477 28.8365 71.0882 29.1407 70.5964 29.3866C70.1175 29.6326 69.5932 29.7555 69.0237 29.7555ZM69.7421 28.0081C70.1304 28.0081 70.4799 27.9175 70.7905 27.7363C71.1141 27.5422 71.4571 27.2833 71.8196 26.9597V24.824C70.5252 24.9922 69.6256 25.2446 69.1208 25.5812C68.616 25.9048 68.3636 26.306 68.3636 26.7849C68.3636 27.2121 68.493 27.5227 68.7519 27.7169C69.0108 27.9111 69.3408 28.0081 69.7421 28.0081ZM76.7244 33.2892V19.9895H78.5689L78.7242 20.9991H78.8019C79.2032 20.6626 79.6497 20.3713 80.1416 20.1254C80.6464 19.8795 81.1577 19.7565 81.6754 19.7565C82.8662 19.7565 83.7853 20.1966 84.4324 21.0768C85.0926 21.9569 85.4226 23.1348 85.4226 24.6104C85.4226 25.6977 85.2285 26.6296 84.8402 27.4062C84.4519 28.1699 83.947 28.7524 83.3257 29.1537C82.7174 29.5549 82.0573 29.7555 81.3454 29.7555C80.9312 29.7555 80.517 29.6649 80.1028 29.4837C79.6886 29.2896 79.2873 29.0307 78.899 28.7071L78.9572 30.2992V33.2892H76.7244ZM80.8794 27.9111C81.5136 27.9111 82.0443 27.6328 82.4715 27.0762C82.8986 26.5196 83.1122 25.7041 83.1122 24.6298C83.1122 23.672 82.9504 22.9277 82.6268 22.397C82.3032 21.8663 81.779 21.601 81.0541 21.601C80.381 21.601 79.6821 21.9569 78.9572 22.6688V27.115C79.3067 27.3998 79.6432 27.6069 79.9668 27.7363C80.2904 27.8528 80.5946 27.9111 80.8794 27.9111ZM91.7609 29.7555C90.8808 29.7555 90.0847 29.5614 89.3728 29.1731C88.6609 28.7718 88.0978 28.2023 87.6836 27.4645C87.2694 26.7138 87.0623 25.8142 87.0623 24.7657C87.0623 23.7302 87.2694 22.8371 87.6836 22.0864C88.1108 21.3356 88.6609 20.7596 89.334 20.3584C90.007 19.9571 90.7125 19.7565 91.4503 19.7565C92.3175 19.7565 93.0424 19.9506 93.6248 20.339C94.2073 20.7143 94.6474 21.245 94.9451 21.931C95.2428 22.6041 95.3917 23.3872 95.3917 24.2803C95.3917 24.7463 95.3593 25.1087 95.2946 25.3676H89.2369C89.3404 26.209 89.6446 26.8626 90.1494 27.3286C90.6542 27.7946 91.2885 28.0275 92.0522 28.0275C92.4664 28.0275 92.8482 27.9693 93.1977 27.8528C93.5601 27.7234 93.9161 27.5486 94.2655 27.3286L95.0228 28.7265C94.5697 29.0242 94.0649 29.2701 93.5083 29.4643C92.9518 29.6585 92.3693 29.7555 91.7609 29.7555ZM89.2175 23.8532H93.4501C93.4501 23.1154 93.2883 22.5394 92.9647 22.1252C92.6411 21.6981 92.1557 21.4845 91.5085 21.4845C90.9519 21.4845 90.4536 21.6916 90.0135 22.1058C89.5864 22.507 89.321 23.0895 89.2175 23.8532ZM97.5242 29.5226V19.9895H99.3687L99.524 21.6786H99.6017C99.9382 21.0573 100.346 20.5849 100.825 20.2613C101.304 19.9248 101.796 19.7565 102.3 19.7565C102.753 19.7565 103.116 19.8212 103.388 19.9506L102.999 21.8922C102.831 21.8404 102.676 21.8016 102.533 21.7757C102.391 21.7498 102.216 21.7369 102.009 21.7369C101.634 21.7369 101.239 21.8857 100.825 22.1834C100.411 22.4682 100.055 22.973 99.757 23.6979V29.5226H97.5242ZM108.654 33.2892V19.9895H110.499L110.654 20.9991H110.732C111.133 20.6626 111.579 20.3713 112.071 20.1254C112.576 19.8795 113.087 19.7565 113.605 19.7565C114.796 19.7565 115.715 20.1966 116.362 21.0768C117.022 21.9569 117.352 23.1348 117.352 24.6104C117.352 25.6977 117.158 26.6296 116.77 27.4062C116.381 28.1699 115.877 28.7524 115.255 29.1537C114.647 29.5549 113.987 29.7555 113.275 29.7555C112.861 29.7555 112.447 29.6649 112.032 29.4837C111.618 29.2896 111.217 29.0307 110.829 28.7071L110.887 30.2992V33.2892H108.654ZM112.809 27.9111C113.443 27.9111 113.974 27.6328 114.401 27.0762C114.828 26.5196 115.042 25.7041 115.042 24.6298C115.042 23.672 114.88 22.9277 114.556 22.397C114.233 21.8663 113.709 21.601 112.984 21.601C112.311 21.601 111.612 21.9569 110.887 22.6688V27.115C111.236 27.3998 111.573 27.6069 111.896 27.7363C112.22 27.8528 112.524 27.9111 112.809 27.9111ZM121.696 29.7555C120.868 29.7555 120.188 29.4967 119.658 28.9789C119.14 28.4612 118.881 27.7881 118.881 26.9597C118.881 25.9371 119.327 25.1476 120.221 24.591C121.114 24.0215 122.538 23.6331 124.492 23.426C124.479 22.9212 124.343 22.4876 124.084 22.1252C123.838 21.7498 123.392 21.5621 122.745 21.5621C122.279 21.5621 121.819 21.6527 121.366 21.834C120.926 22.0152 120.492 22.2352 120.065 22.4941L119.25 20.9991C119.781 20.6626 120.376 20.3713 121.036 20.1254C121.709 19.8795 122.421 19.7565 123.172 19.7565C124.363 19.7565 125.249 20.1124 125.832 20.8243C126.427 21.5233 126.725 22.5394 126.725 23.8726V29.5226H124.88L124.725 28.4741H124.647C124.22 28.8365 123.761 29.1407 123.269 29.3866C122.79 29.6326 122.266 29.7555 121.696 29.7555ZM122.415 28.0081C122.803 28.0081 123.152 27.9175 123.463 27.7363C123.787 27.5422 124.13 27.2833 124.492 26.9597V24.824C123.198 24.9922 122.298 25.2446 121.793 25.5812C121.288 25.9048 121.036 26.306 121.036 26.7849C121.036 27.2121 121.165 27.5227 121.424 27.7169C121.683 27.9111 122.013 28.0081 122.415 28.0081ZM132.717 33.7357C131.966 33.7357 131.287 33.6451 130.678 33.4639C130.083 33.2827 129.61 33.0044 129.261 32.6291C128.924 32.2666 128.756 31.8071 128.756 31.2505C128.756 30.461 129.209 29.7814 130.115 29.2119V29.1342C129.869 28.9789 129.662 28.7718 129.494 28.5129C129.339 28.2541 129.261 27.9305 129.261 27.5422C129.261 27.1668 129.365 26.8303 129.572 26.5325C129.792 26.2219 130.038 25.9695 130.309 25.7753V25.6977C129.986 25.4517 129.695 25.1087 129.436 24.6686C129.19 24.2286 129.067 23.7302 129.067 23.1736C129.067 22.4358 129.242 21.8145 129.591 21.3097C129.941 20.8049 130.4 20.4231 130.97 20.1642C131.552 19.8924 132.173 19.7565 132.833 19.7565C133.092 19.7565 133.338 19.7824 133.571 19.8342C133.817 19.873 134.037 19.9248 134.231 19.9895H137.649V21.6398H135.901C136.056 21.821 136.186 22.054 136.289 22.3388C136.393 22.6106 136.445 22.9148 136.445 23.2513C136.445 23.9503 136.283 24.5457 135.959 25.0375C135.636 25.5165 135.202 25.8789 134.659 26.1248C134.115 26.3707 133.507 26.4937 132.833 26.4937C132.626 26.4937 132.413 26.4743 132.193 26.4355C131.973 26.3966 131.753 26.3319 131.533 26.2413C131.39 26.3707 131.274 26.5002 131.183 26.6296C131.105 26.7591 131.067 26.9338 131.067 27.1538C131.067 27.4257 131.177 27.6392 131.397 27.7946C131.63 27.9499 132.037 28.0275 132.62 28.0275H134.309C135.461 28.0275 136.328 28.2152 136.911 28.5906C137.506 28.953 137.804 29.5484 137.804 30.3768C137.804 30.9981 137.597 31.5612 137.183 32.066C136.768 32.5838 136.179 32.9915 135.416 33.2892C134.652 33.5869 133.752 33.7357 132.717 33.7357ZM132.833 25.0958C133.287 25.0958 133.675 24.9275 133.998 24.591C134.322 24.2544 134.484 23.782 134.484 23.1736C134.484 22.5782 134.322 22.1187 133.998 21.7951C133.688 21.4586 133.299 21.2903 132.833 21.2903C132.368 21.2903 131.973 21.4521 131.649 21.7757C131.326 22.0993 131.164 22.5653 131.164 23.1736C131.164 23.782 131.326 24.2544 131.649 24.591C131.973 24.9275 132.368 25.0958 132.833 25.0958ZM133.066 32.2796C133.83 32.2796 134.451 32.1242 134.93 31.8136C135.409 31.5029 135.649 31.147 135.649 30.7457C135.649 30.3704 135.5 30.118 135.202 29.9885C134.917 29.8591 134.503 29.7944 133.96 29.7944H132.659C132.141 29.7944 131.707 29.7491 131.358 29.6585C130.866 30.0338 130.62 30.4545 130.62 30.9205C130.62 31.3476 130.84 31.6777 131.28 31.9107C131.72 32.1566 132.316 32.2796 133.066 32.2796ZM143.258 29.7555C142.378 29.7555 141.582 29.5614 140.87 29.1731C140.158 28.7718 139.595 28.2023 139.181 27.4645C138.766 26.7138 138.559 25.8142 138.559 24.7657C138.559 23.7302 138.766 22.8371 139.181 22.0864C139.608 21.3356 140.158 20.7596 140.831 20.3584C141.504 19.9571 142.209 19.7565 142.947 19.7565C143.814 19.7565 144.539 19.9506 145.122 20.339C145.704 20.7143 146.144 21.245 146.442 21.931C146.74 22.6041 146.889 23.3872 146.889 24.2803C146.889 24.7463 146.856 25.1087 146.792 25.3676H140.734C140.837 26.209 141.142 26.8626 141.646 27.3286C142.151 27.7946 142.785 28.0275 143.549 28.0275C143.963 28.0275 144.345 27.9693 144.695 27.8528C145.057 27.7234 145.413 27.5486 145.762 27.3286L146.52 28.7265C146.067 29.0242 145.562 29.2701 145.005 29.4643C144.449 29.6585 143.866 29.7555 143.258 29.7555ZM140.714 23.8532H144.947C144.947 23.1154 144.785 22.5394 144.462 22.1252C144.138 21.6981 143.653 21.4845 143.005 21.4845C142.449 21.4845 141.951 21.6916 141.51 22.1058C141.083 22.507 140.818 23.0895 140.714 23.8532Z" fill="#2C3236"/>
<path d="M26.7795 16.4668H36.2228L37.6359 18.2934L39.3591 20.4648V31.1835H26.7795V16.4668Z" fill="#E6E8EA"/>
<path fill-rule="evenodd" clip-rule="evenodd" d="M35.6063 15.2701C36.0911 15.2701 36.5758 15.454 36.9435 15.7549L39.4173 17.7941C39.9187 18.2119 40.1694 18.7969 40.1694 19.4154V29.8119C40.1694 30.9819 39.2334 31.9179 38.0801 31.9179H27.951C26.781 31.9179 25.845 30.9819 25.845 29.8119V17.3762C25.845 16.2062 26.781 15.2701 27.951 15.2701H35.5896H35.6063ZM35.7902 21.3376C34.5199 21.3376 33.517 20.3347 33.517 19.0644V17.8943C33.5215 17.754 33.4975 17.6143 33.4464 17.4836C33.3954 17.3528 33.3182 17.2338 33.2198 17.1338C33.1213 17.0337 33.0035 16.9548 32.8736 16.9016C32.7437 16.8485 32.6043 16.8223 32.464 16.8246H27.951C27.8801 16.8245 27.8098 16.8389 27.7447 16.867C27.6795 16.8951 27.6209 16.9363 27.5723 16.988C27.5237 17.0397 27.4863 17.1008 27.4623 17.1676C27.4383 17.2344 27.4283 17.3054 27.4329 17.3762V29.8119C27.4329 30.1128 27.6502 30.3635 27.9343 30.3635H38.0801C38.381 30.3635 38.5983 30.1128 38.5983 29.8119V22.424C38.6027 22.2851 38.5792 22.1468 38.5292 22.0172C38.4791 21.8875 38.4035 21.7693 38.3068 21.6695C38.2101 21.5697 38.0944 21.4904 37.9664 21.4362C37.8384 21.3821 37.7009 21.3542 37.5619 21.3543H35.7735H35.7902V21.3376Z" fill="#9DA3AE"/>
<defs>
<linearGradient id="paint0_linear_402_77" x1="0.321045" y1="24" x2="86.9038" y2="24" gradientUnits="userSpaceOnUse">
<stop stop-color="#F5F9FA"/>
<stop offset="1" stop-color="white"/>
</linearGradient>
</defs>
</svg>
